<svg xmlns="http://www.w3.org/2000/svg" xmlns:xlink="http://www.w3.org/1999/xlink" viewBox="0 0 280 250" preserveAspectRatio="xMidYMid" style="display: block; shape-rendering: auto; background: transparent;" width="280" height="250"><style type="text/css">
  .ld-text text {
    text-anchor: middle;
    dominant-baseline: middle;
    font-size: 80px;
    opacity: 0;
    user-select: none;
    pointer-events: none;
  }
</style>
<g style="transform-origin:140px 125px;transform:scale(1)" class="ld-text">
<g transform="translate(140,125)">
  <g transform="scale(1.0000) translate(0,0)"><g class="path" style="opacity: 1; transform-origin: -103.32px 10.03px; transform: matrix3d(1, 0, 0, 0, 0, 1, 0, 0, 0, 0, 1, 0, 0, 0, 0, 1); animation: 0.609756s linear -0.357724s infinite normal forwards running animate-38z9xrx9lci; transform-box: view-box;"><path d="M1.04 33.78L7.28 25.14Q14.08 31.94 20.88 31.94L20.88 31.94Q24.40 31.94 26.52 30.30Q28.64 28.66 28.64 26.06Q28.64 23.46 26.08 21.66Q23.52 19.86 19.88 18.50Q16.24 17.14 12.64 15.42Q9.04 13.70 6.48 10.50Q3.92 7.30 3.92 2.74L3.92 2.74Q3.92-4.46 9.92-9.70Q15.92-14.94 24.16-14.94L24.16-14.94Q27.92-14.94 31.44-14.14Q34.96-13.34 38.24-11.82L38.24-11.82L32.80-0.14Q30.56-1.90 26.68-3.38Q22.80-4.86 19.88-4.86Q16.96-4.86 15.16-3.46Q13.36-2.06 13.36 0.26Q13.36 2.58 15.92 4.38Q18.48 6.18 22.12 7.54Q25.76 8.90 29.40 10.54Q33.04 12.18 35.60 15.38Q38.16 18.58 38.16 23.14L38.16 23.14Q38.16 30.66 32.16 36.30Q26.16 41.94 18.16 41.94L18.16 41.94Q12.16 41.94 7.52 39.06L7.52 39.06Q3.44 36.58 1.76 34.66L1.76 34.66L1.04 33.78" style="fill: rgb(49, 107, 108);" transform="translate(-122.960,-20.529)"></path></g><g class="path" style="opacity: 1; transform-origin: -64.16px 12.48px; transform: matrix3d(1, 0, 0, 0, 0, 1, 0, 0, 0, 0, 1, 0, 0, 0, 0, 1); animation: 0.609756s linear -0.313008s infinite normal forwards running animate-38z9xrx9lci; transform-box: view-box;"><path d="M52.88 41.06Q48.16 41.06 45.16 38.06Q42.16 35.06 42.16 29.98Q42.16 24.90 46.80 21.18Q51.44 17.46 58.08 17.46L58.08 17.46L63.52 17.46L63.52 16.10Q63.52 12.18 61.92 10.74Q60.32 9.30 55.92 9.30L55.92 9.30Q54.08 9.30 51.56 10.06Q49.04 10.82 45.92 12.42L45.92 12.42L43.60 6.10Q47.04 3.70 51.96 1.78Q56.88-0.14 60.08-0.14L60.08-0.14Q72.64-0.14 72.64 12.02L72.64 12.02L72.64 27.70Q72.64 32.18 75.44 37.70L75.44 37.70L66.96 41.30Q64.96 37.46 64 34.42L64 34.42Q59.60 41.06 52.88 41.06L52.88 41.06 zM56.24 32.90L56.24 32.90Q59.44 32.90 63.52 29.62L63.52 29.62L63.52 24.26Q59.28 23.30 56.64 23.30L56.64 23.30Q51.60 23.30 51.60 27.78L51.60 27.78Q51.60 30.10 52.88 31.50Q54.16 32.90 56.24 32.90" style="fill: rgb(49, 107, 108);" transform="translate(-122.960,-20.529)"></path></g><g class="path" style="opacity: 1; transform-origin: -26.64px 12.58px; transform: matrix3d(1, 0, 0, 0, 0, 1, 0, 0, 0, 0, 1, 0, 0, 0, 0, 1); animation: 0.609756s linear -0.268293s infinite normal forwards running animate-38z9xrx9lci; transform-box: view-box;"><path d="M93.04 18.02L96 31.06L97.04 31.06L99.68 20.10L104 0.34L113.92 1.54L107.92 21.38L102.88 40.10L89.20 41.30L84.48 21.86L78.72 2.42L89.60 0.42L93.04 18.02" style="fill: rgb(49, 107, 108);" transform="translate(-122.960,-20.529)"></path></g><g class="path" style="opacity: 1; transform-origin: 1.56px 12.39px; transform: matrix3d(1, 0, 0, 0, 0, 1, 0, 0, 0, 0, 1, 0, 0, 0, 0, 1); animation: 0.609756s linear -0.223577s infinite normal forwards running animate-38z9xrx9lci; transform-box: view-box;"><path d="M119.20 2.34L129.92 0.34L128.96 20.26L129.84 39.06L119.12 41.06L120.08 21.62L119.20 2.34" style="fill: rgb(49, 107, 108);" transform="translate(-122.960,-20.529)"></path></g><g class="path" style="opacity: 1; transform-origin: 1.92px -28.33px; transform: matrix3d(1, 0, 0, 0, 0, 1, 0, 0, 0, 0, 1, 0, 0, 0, 0, 1); animation: 0.609756s linear -0.178862s infinite normal forwards running animate-38z9xrx9lci; transform-box: view-box;"><path d="M118.64-11.38Q118.64-14.06 120.72-16.18Q122.80-18.30 125.52-18.30Q128.24-18.30 129.68-16.82Q131.12-15.34 131.12-12.38Q131.12-9.42 129.08-7.30Q127.04-5.18 124.36-5.18Q121.68-5.18 120.16-6.94Q118.64-8.70 118.64-11.38" style="fill: rgb(49, 107, 108);" transform="translate(-122.960,-20.529)"></path></g><g class="path" style="opacity: 1; transform-origin: 31.84px 12.71px; transform: matrix3d(1, 0, 0, 0, 0, 1, 0, 0, 0, 0, 1, 0, 0, 0, 0, 1); animation: 0.609756s linear -0.134146s infinite normal forwards running animate-38z9xrx9lci; transform-box: view-box;"><path d="M161.92 20.82Q161.92 15.30 160.96 13.46Q160 11.62 156.48 11.62Q152.96 11.62 148.48 14.42L148.48 14.42L148.48 20.26L149.36 39.06L138.64 41.06L139.60 21.62Q139.28 10.90 137.84 2.42L137.84 2.42L147.52 0.34Q148.08 4.98 148.32 9.38L148.32 9.38Q149.52 7.78 151.04 6.22Q152.56 4.66 155.84 2.70Q159.12 0.74 162.76 0.74Q166.40 0.74 168.88 3.58Q171.36 6.42 171.36 11.30L171.36 11.30L170.88 20.26L171.76 39.46L160.96 41.46L161.92 20.82" style="fill: rgb(49, 107, 108);" transform="translate(-122.960,-20.529)"></path></g><g class="path" style="opacity: 1; transform-origin: 74.4px 26.37px; transform: matrix3d(1, 0, 0, 0, 0, 1, 0, 0, 0, 0, 1, 0, 0, 0, 0, 1); animation: 0.609756s linear -0.0894309s infinite normal forwards running animate-38z9xrx9lci; transform-box: view-box;"><path d="M177.76 48.98L177.76 48.98Q177.76 41.94 190.88 37.94L190.88 37.94Q187.76 36.34 187.76 33.78L187.76 33.78Q187.76 32.74 188.56 31.70Q189.36 30.66 190.88 29.54L190.88 29.54L190.88 28.90Q185.12 28.90 181.72 25.70Q178.32 22.50 178.32 17.14L178.32 17.14Q178.32 10.18 184 5.02Q189.68-0.14 197.44-0.14L197.44-0.14Q199.44-0.14 203.28 0.66Q207.12 1.46 210.80 1.46L210.80 1.46L216.96 1.46L216.16 8.42L210.16 7.70Q210.96 10.02 210.96 12.98Q210.96 15.94 209.56 18.86Q208.16 21.78 206.20 23.54Q204.24 25.30 202.28 26.62Q200.32 27.94 198.92 28.94Q197.52 29.94 197.52 30.74L197.52 30.74Q197.52 32.26 200.72 33.38L200.72 33.38Q209.20 36.82 212.20 39.22Q215.20 41.62 215.20 45.14L215.20 45.14Q215.20 51.06 209.24 54.86Q203.28 58.66 195.04 58.66Q186.80 58.66 182.28 56.02Q177.76 53.38 177.76 48.98 zM201.92 15.38L201.92 15.38Q201.92 11.46 200.16 9.62Q198.40 7.78 194.64 7.78L194.64 7.78Q187.36 7.78 187.36 14.94Q187.36 22.10 195.12 22.10L195.12 22.10Q201.92 22.10 201.92 15.38 zM204.80 46.34L204.80 46.34Q204.80 44.90 203.28 43.66Q201.76 42.42 197.84 40.74L197.84 40.74Q192 42.34 189.80 43.70Q187.60 45.06 187.60 47.06Q187.60 49.06 189.80 50.30Q192 51.54 195.92 51.54Q199.84 51.54 202.32 50.10Q204.80 48.66 204.80 46.34" style="fill: rgb(49, 107, 108);" transform="translate(-122.960,-20.529)"></path></g><g class="path" style="opacity: 1; transform-origin: 101.8px 18.55px; transform: matrix3d(1, 0, 0, 0, 0, 1, 0, 0, 0, 0, 1, 0, 0, 0, 0, 1); animation: 0.609756s linear -0.0447154s infinite normal forwards running animate-38z9xrx9lci; transform-box: view-box;"><path d="M218.96 35.70Q218.96 33.14 220.84 31.18Q222.72 29.22 225.36 29.22L225.36 29.22Q230.56 29.22 230.56 34.50L230.56 34.50Q230.56 37.54 228.68 39.54Q226.80 41.54 224.28 41.54Q221.76 41.54 220.36 39.90Q218.96 38.26 218.96 35.70" style="fill: rgb(49, 107, 108);" transform="translate(-122.960,-20.529)"></path></g><g class="path" style="opacity: 1; transform-origin: 118.2px 18.55px; transform: matrix3d(1, 0, 0, 0, 0, 1, 0, 0, 0, 0, 1, 0, 0, 0, 0, 1); animation: 0.609756s linear 0s infinite normal forwards running animate-38z9xrx9lci; transform-box: view-box;"><path d="M235.36 35.70Q235.36 33.14 237.24 31.18Q239.12 29.22 241.76 29.22L241.76 29.22Q246.96 29.22 246.96 34.50L246.96 34.50Q246.96 37.54 245.08 39.54Q243.20 41.54 240.68 41.54Q238.16 41.54 236.76 39.90Q235.36 38.26 235.36 35.70" style="fill: rgb(49, 107, 108);" transform="translate(-122.960,-20.529)"></path></g></g><text dy="0.35em" fill="#316b6c" font-family="Acme" font-size="80">Saving..</text>
</g>
</g><style type="text/css">@keyframes animate-38z9xrx9lci { 0.00% {transform: translate(0.00px,0.00px) rotate(0.00deg) scale(1.00, 1.00) skew(0deg, 0.00deg) ;opacity: 1.00;}2.00% {animation-timing-function: cubic-bezier(0.20,0.39,0.50,0.97);transform: translate(0.00px,-1.08px) rotate(0.00deg) ;}36.00% {animation-timing-function: cubic-bezier(0.50,0.03,0.80,0.61);transform: translate(0.00px,-10.00px) rotate(0.00deg) ;}72.00% {transform: translate(0.00px,-0.12px) rotate(0.00deg) ;}74.00% {animation-timing-function: cubic-bezier(0.24,0.43,0.48,0.91);transform: translate(0.00px,0.00px) rotate(0.00deg) scale(1.00, 0.95) ;}86.00% {animation-timing-function: cubic-bezier(0.53,0.08,0.77,0.57);transform: translate(0.00px,0.00px) rotate(0.00deg) scale(1.00, 0.80) ;}100.00% {animation-timing-function: cubic-bezier(0.53,0.08,0.77,0.57);transform: translate(0.00px,0.00px) rotate(0.00deg) scale(1.00, 1.00) ;} }</style><!-- [ldio] generated by https://loading.io --></svg>